#define blarg_width 16
#define blarg_height 7
static char blarg_bits[] = {
  0x13, 0x00,
  0x15, 0x00,
  0x93, 0xcd,
  0x55, 0xa5,
  0x93, 0xc5,
  0x00, 0x80,
  0x00, 0x60
};
