/* XPM */
static char * depyct_xpm[] = {
"23 7 3 1",
"  c #FFFFFF",
"= c #FF0000",
"# c #000000",
"##                     ",
"# #  #               # ",
"# # ### ### # # ### ###",
"# # #   # #  ## #    # ",
"##   #  ###   # ###   #",
"========#===#=#========",
"        #    #         "
};
