#define depyct_width 23
#define depyct_height 7
static char depyct_bits[] = {
 0x03 0x00 0x00
 0x25 0x00 0x20
 0x75 0x57 0x77
 0x15 0x65 0x21
 0x23 0x47 0x47
 0x00 0x51 0x00
 0x00 0x21 0x00
};
